<svg width="280" height="99" viewBox="0 0 280 99" fill="none" xmlns="http://www.w3.org/2000/svg">
<path fill-rule="evenodd" clip-rule="evenodd" d="M98.0816 17H30.5C13.6553 17 0 30.6553 0 47.5C0 64.3447 13.6553 78 30.5 78H98.0816V77H30.5C14.2076 77 1 63.7924 1 47.5C1 31.2076 14.2076 18 30.5 18H98.0816V17ZM183.531 77H249.5C265.792 77 279 63.7924 279 47.5C279 31.2076 265.792 18 249.5 18H183.531V17H249.5C266.345 17 280 30.6553 280 47.5C280 64.3447 266.345 78 249.5 78H183.531V77Z" fill="white"/>
<path d="M139.267 0L136.885 4.514L134.58 9.028C136.232 12.1974 137.692 14.9442 139.325 18.056L144.069 9.028L141.63 4.514L139.267 0Z" fill="white"/>
<path d="M163.438 15.386L163.207 15.2516L162.977 15.0979L162.727 14.9634L162.497 14.8098L162.247 14.6753L162.016 14.5409L161.786 14.4064L161.536 14.2719L161.287 14.1375L161.056 14.0222L160.806 13.8878L160.557 13.7533L160.326 13.6188L160.076 13.5036L159.827 13.3691L159.577 13.2539L159.327 13.1386L159.078 13.0234L158.828 12.8889L158.693 12.8313L156.484 17.6526L156.58 17.6911L156.811 17.7871L157.022 17.9023L157.253 18.0176L157.464 18.1136L157.675 18.2289L157.906 18.3441L158.117 18.4594L158.328 18.5554L158.54 18.6707L158.77 18.8051L158.981 18.9204L159.193 19.0357L159.404 19.1509L159.615 19.2662L159.827 19.4006L160.038 19.5159L160.249 19.6311L160.461 19.7656L160.672 19.9L160.864 20.0153L163.63 15.5013L163.438 15.386Z" fill="white"/>
<path d="M153.119 10.6799L152.85 10.603L152.581 10.5262L152.312 10.4302L152.043 10.3533L151.774 10.2957L151.486 10.2189L151.217 10.142L150.948 10.0652L150.68 10.0076L150.391 9.93074L150.123 9.85391L149.854 9.79628L149.565 9.73865L149.297 9.68103L149.008 9.60419L148.739 9.54657L148.451 9.50815L148.182 9.45053L148.029 9.41211L147.068 14.6176L147.184 14.6368L147.433 14.6945L147.683 14.7329L147.914 14.7905L148.163 14.8481L148.413 14.9057L148.663 14.9634L148.893 15.021L149.143 15.0594L149.393 15.1362L149.623 15.1939L149.873 15.2515L150.123 15.3283L150.353 15.386L150.584 15.4436L150.833 15.5204L151.064 15.5973L151.313 15.6549L151.544 15.7317L151.794 15.8085L151.89 15.847L153.484 10.7951L153.388 10.7759L153.119 10.6799Z" fill="white"/>
<path d="M130.504 9.39299L130.216 9.45061L129.928 9.50824L129.659 9.54666L129.371 9.60428L129.102 9.68112L128.814 9.73874L128.545 9.79637L128.257 9.85399L127.988 9.93083L127.719 10.0077L127.45 10.0653L127.162 10.1421L126.893 10.219L126.624 10.2958L126.355 10.3534L126.086 10.4302L125.817 10.5263L125.529 10.6031L125.279 10.68L125.164 10.7184L126.758 15.7702L126.835 15.7318L127.085 15.655L127.315 15.5973L127.546 15.5205L127.796 15.4437L128.045 15.386L128.276 15.3284L128.526 15.2516L128.756 15.194L129.006 15.1363L129.236 15.0595L129.486 15.0211L129.736 14.9635L129.985 14.9058L130.216 14.8482L130.466 14.7906L130.715 14.733L130.965 14.6945L131.215 14.6369L131.445 14.5985L131.58 14.5793L130.619 9.37378L130.504 9.39299Z" fill="white"/>
<path d="M119.841 12.7735L119.591 12.8888L119.341 13.0232L119.091 13.1385L118.842 13.2537L118.592 13.369L118.342 13.5034L118.093 13.6187L117.843 13.7532L117.612 13.8876L117.363 14.0221L117.113 14.1373L116.882 14.2718L116.633 14.4062L116.402 14.5407L116.153 14.6752L115.922 14.8096L115.672 14.9633L115.442 15.0978L115.211 15.2514L115 15.3667L117.785 19.8807L117.958 19.7654L118.169 19.631L118.361 19.5157L118.573 19.4005L118.784 19.266L118.995 19.1508L119.226 19.0355L119.437 18.9203L119.648 18.805L119.86 18.6705L120.071 18.5553L120.282 18.4592L120.513 18.344L120.724 18.2287L120.935 18.1135L121.166 18.0174L121.377 17.9022L121.608 17.7869L121.819 17.6909L122.05 17.5949L122.165 17.5372L119.956 12.7351L119.841 12.7735Z" fill="white"/>
<path d="M139.921 98.7568L138.164 95.4263L136.463 92.0958C137.682 89.7574 138.759 87.7307 139.964 85.4348L143.464 92.0958L141.664 95.4263L139.921 98.7568Z" fill="white"/>
<path d="M157.566 87.4046L157.396 87.5038L157.226 87.6172L157.041 87.7164L156.871 87.8298L156.687 87.929L156.517 88.0282L156.347 88.1274L156.163 88.2266L155.978 88.3258L155.808 88.4109L155.624 88.5101L155.44 88.6093L155.27 88.7085L155.086 88.7935L154.901 88.8927L154.717 88.9778L154.533 89.0628L154.349 89.1478L154.164 89.247L154.065 89.2896L152.435 85.7323L152.506 85.7039L152.676 85.6331L152.832 85.548L153.002 85.463L153.158 85.3921L153.314 85.3071L153.484 85.2221L153.64 85.137L153.796 85.0662L153.952 84.9811L154.122 84.8819L154.278 84.7969L154.434 84.7119L154.59 84.6268L154.745 84.5418L154.901 84.4426L155.057 84.3576L155.213 84.2725L155.369 84.1733L155.525 84.0741L155.667 83.9891L157.707 87.3196L157.566 87.4046Z" fill="white"/>
<path d="M149.942 90.8771L149.743 90.9338L149.545 90.9905L149.346 91.0614L149.148 91.1181L148.95 91.1606L148.737 91.2173L148.539 91.2739L148.34 91.3306L148.142 91.3732L147.929 91.4298L147.731 91.4865L147.532 91.5291L147.32 91.5716L147.121 91.6141L146.909 91.6708L146.71 91.7133L146.498 91.7416L146.299 91.7842L146.186 91.8125L145.477 87.9718L145.562 87.9576L145.747 87.9151L145.931 87.8868L146.101 87.8442L146.285 87.8017L146.469 87.7592L146.654 87.7167L146.824 87.6742L147.008 87.6458L147.192 87.5891L147.362 87.5466L147.546 87.5041L147.731 87.4474L147.901 87.4049L148.071 87.3624L148.255 87.3057L148.425 87.249L148.609 87.2065L148.779 87.1498L148.964 87.0931L149.035 87.0648L150.211 90.7921L150.14 90.8063L149.942 90.8771Z" fill="white"/>
<path d="M133.756 91.8266L133.544 91.7841L133.331 91.7416L133.133 91.7133L132.92 91.6708L132.722 91.6141L132.509 91.5715L132.311 91.529L132.098 91.4865L131.9 91.4298L131.701 91.3731L131.503 91.3306L131.29 91.2739L131.092 91.2172L130.894 91.1605L130.695 91.118L130.497 91.0613L130.298 90.9905L130.086 90.9338L129.901 90.8771L129.816 90.8488L130.993 87.1214L131.049 87.1498L131.234 87.2065L131.404 87.249L131.574 87.3057L131.758 87.3623L131.942 87.4049L132.112 87.4474L132.297 87.5041L132.467 87.5466L132.651 87.5891L132.821 87.6458L133.005 87.6741L133.189 87.7167L133.374 87.7592L133.544 87.8017L133.728 87.8442L133.912 87.8867L134.096 87.9151L134.281 87.9576L134.451 87.9859L134.55 88.0001L133.841 91.8408L133.756 91.8266Z" fill="white"/>
<path d="M125.862 89.3323L125.678 89.2472L125.494 89.148L125.31 89.063L125.125 88.9779L124.941 88.8929L124.757 88.7937L124.573 88.7087L124.389 88.6095L124.218 88.5103L124.034 88.411L123.85 88.326L123.68 88.2268L123.496 88.1276L123.326 88.0284L123.141 87.9292L122.971 87.83L122.787 87.7166L122.617 87.6174L122.447 87.504L122.291 87.419L124.346 84.0885L124.474 84.1735L124.629 84.2727L124.771 84.3577L124.927 84.4428L125.083 84.542L125.239 84.627L125.409 84.7121L125.565 84.7971L125.721 84.8821L125.877 84.9813L126.033 85.0664L126.188 85.1372L126.358 85.2223L126.514 85.3073L126.67 85.3923L126.84 85.4632L126.996 85.5482L127.166 85.6333L127.322 85.7041L127.492 85.775L127.577 85.8175L125.947 89.3606L125.862 89.3323Z" fill="white"/>
</svg>
