<?xml version="1.0" standalone="no"?>
<!DOCTYPE svg PUBLIC "-//W3C//DTD SVG 20010904//EN"
 "http://www.w3.org/TR/2001/REC-SVG-20010904/DTD/svg10.dtd">
<svg version="1.0" xmlns="http://www.w3.org/2000/svg"
 width="66.000000pt" height="89.000000pt" viewBox="0 0 66.000000 89.000000"
 preserveAspectRatio="xMidYMid meet">

<g transform="translate(0.000000,89.000000) scale(0.100000,-0.100000)"
fill="#000000" stroke="none">
<path d="M287 833 c-26 -7 -57 -35 -57 -50 0 -7 -4 -13 -10 -13 -16 0 -12 -47
6 -65 23 -22 10 -63 -21 -71 -14 -3 -25 -12 -25 -20 0 -8 -6 -14 -14 -14 -8 0
-17 -11 -20 -25 -4 -14 -11 -25 -16 -25 -6 0 -10 -23 -10 -51 0 -42 5 -56 25
-75 14 -13 25 -28 25 -34 0 -5 7 -10 15 -10 8 0 15 -7 15 -15 0 -14 -11 -19
-36 -16 -5 0 -20 -8 -32 -19 -12 -11 -24 -20 -27 -20 -10 0 -35 -28 -35 -39 0
-6 -7 -11 -15 -11 -8 0 -17 -11 -21 -25 -3 -14 -10 -25 -15 -25 -5 0 -9 -42
-9 -94 0 -76 3 -95 16 -100 9 -3 148 -6 310 -6 255 0 294 2 294 15 0 8 5 15
10 15 13 0 13 107 0 112 -6 2 -13 19 -15 38 -3 19 -9 36 -15 38 -5 2 -10 9
-10 16 0 7 -16 26 -36 42 -20 16 -41 34 -48 40 -6 6 -24 14 -39 18 -29 7 -37
33 -12 42 8 4 15 12 15 20 0 8 6 14 14 14 18 0 31 97 17 131 -13 34 -49 69
-82 81 -33 11 -38 40 -13 65 19 20 10 87 -16 113 -19 19 -82 32 -113 23z m83
-38 c0 -8 7 -15 15 -15 11 0 15 -11 15 -40 0 -29 -4 -40 -15 -40 -8 0 -15 -7
-15 -15 0 -8 -7 -15 -15 -15 -8 0 -15 -7 -15 -15 0 -10 10 -15 30 -15 20 0 30
-5 30 -15 0 -8 7 -15 15 -15 8 0 15 -7 15 -15 0 -8 7 -15 15 -15 8 0 15 -7 15
-15 0 -8 7 -15 15 -15 21 0 21 -78 0 -86 -8 -4 -15 -17 -15 -30 0 -15 -6 -24
-15 -24 -8 0 -15 -7 -15 -15 0 -10 -10 -15 -30 -15 -20 0 -30 -5 -30 -15 0
-10 10 -15 30 -15 20 0 30 -5 30 -15 0 -10 10 -15 30 -15 20 0 30 -5 30 -15 0
-8 5 -15 11 -15 14 0 69 -55 69 -69 0 -6 7 -11 15 -11 12 0 15 -16 15 -85 l0
-85 -271 0 c-221 0 -273 3 -285 14 -16 16 -20 126 -5 126 5 0 12 13 16 30 4
16 13 30 21 30 8 0 14 5 14 11 0 14 25 39 39 39 6 0 11 7 11 15 0 10 10 15 29
15 16 0 36 7 45 15 8 8 22 15 30 15 9 0 16 7 16 15 0 8 -9 15 -20 15 -11 0
-20 4 -20 9 0 5 -9 13 -20 16 -13 4 -23 18 -27 36 -3 16 -12 29 -19 29 -19 0
-18 49 1 56 8 4 15 17 15 30 0 15 6 24 15 24 8 0 15 7 15 15 0 8 5 15 11 15 6
0 17 7 25 15 9 8 24 15 35 15 24 0 25 23 2 46 -21 21 -22 102 -1 115 7 5 32 9
56 9 31 0 42 -4 42 -15z"/>
</g>
</svg>
