<svg width="22" height="10" viewBox="0 0 22 10" fill="none" xmlns="http://www.w3.org/2000/svg">
<path d="M10.9506 9.17383L9.85895 7.10492L8.80249 5.03601C9.55962 3.58337 10.2287 2.32442 10.977 0.898193L13.1516 5.03601L12.0335 7.10492L10.9506 9.17383Z" fill="white"/>
<path d="M21.9114 2.12205L21.8057 2.18368L21.7001 2.25411L21.5856 2.31574L21.48 2.38617L21.3655 2.4478L21.2599 2.50942L21.1542 2.57105L21.0398 2.63268L20.9253 2.69431L20.8197 2.74713L20.7052 2.80876L20.5908 2.87038L20.4851 2.93201L20.3707 2.98483L20.2562 3.04646L20.1418 3.09928L20.0273 3.15211L19.9129 3.20493L19.7984 3.26656L19.7368 3.29297L18.7244 1.0832L18.7684 1.06559L18.874 1.02157L18.9709 0.968748L19.0765 0.915924L19.1734 0.871905L19.2702 0.819082L19.3759 0.766258L19.4727 0.713436L19.5695 0.669416L19.6664 0.616593L19.772 0.554966L19.8689 0.502142L19.9657 0.44932L20.0626 0.396496L20.1594 0.343673L20.2562 0.282046L20.3531 0.229223L20.4499 0.176399L20.5468 0.114773L20.6436 0.0531459L20.7316 0.000322342L21.9994 2.06923L21.9114 2.12205Z" fill="white"/>
<path d="M17.1753 4.27881L17.0521 4.31402L16.9288 4.34924L16.8056 4.39326L16.6823 4.42847L16.559 4.45489L16.427 4.4901L16.3037 4.52532L16.1805 4.56053L16.0572 4.58694L15.9252 4.62216L15.8019 4.65737L15.6787 4.68379L15.5466 4.7102L15.4233 4.73661L15.2913 4.77182L15.168 4.79824L15.036 4.81584L14.9127 4.84226L14.8423 4.85986L14.4021 2.47402L14.4549 2.46521L14.5694 2.4388L14.6838 2.42119L14.7895 2.39478L14.9039 2.36837L15.0184 2.34196L15.1328 2.31555L15.2385 2.28913L15.3529 2.27153L15.4674 2.23631L15.573 2.2099L15.6875 2.18349L15.8019 2.14827L15.9076 2.12186L16.0132 2.09545L16.1277 2.06023L16.2333 2.02502L16.3478 1.99861L16.4534 1.96339L16.5679 1.92818L16.6119 1.91057L17.3426 4.22599L17.2986 4.23479L17.1753 4.27881Z" fill="white"/>
<path d="M7.1213 4.86864L6.98925 4.84223L6.85719 4.81581L6.73393 4.79821L6.60187 4.7718L6.47862 4.73658L6.34656 4.71017L6.22331 4.68376L6.09125 4.65734L5.968 4.62213L5.84474 4.58691L5.72149 4.5605L5.58943 4.52529L5.46618 4.49007L5.34292 4.45486L5.21967 4.42844L5.09641 4.39323L4.97316 4.34921L4.8411 4.31399L4.72665 4.27878L4.67383 4.26117L5.40455 1.94575L5.43976 1.96336L5.55421 1.99858L5.65986 2.02499L5.76551 2.0602L5.87996 2.09542L5.99441 2.12183L6.10005 2.14824L6.2145 2.18346L6.32015 2.20987L6.4346 2.23628L6.54025 2.2715L6.6547 2.2891L6.76915 2.31552L6.8836 2.34193L6.98925 2.36834L7.1037 2.39475L7.21815 2.42116L7.3326 2.43877L7.44705 2.46518L7.55269 2.48279L7.61432 2.49159L7.17413 4.87744L7.1213 4.86864Z" fill="white"/>
<path d="M2.2176 3.31931L2.10315 3.26648L1.9887 3.20486L1.87425 3.15203L1.7598 3.09921L1.64535 3.04639L1.5309 2.98476L1.41645 2.93194L1.302 2.87031L1.19635 2.80868L1.0819 2.74705L0.967449 2.69423L0.861802 2.6326L0.747352 2.57098L0.641706 2.50935L0.527255 2.44772L0.421609 2.3861L0.307159 2.31567L0.201512 2.25404L0.095866 2.18361L-0.000976562 2.13078L1.27558 0.0618753L1.35482 0.114699L1.45166 0.176326L1.5397 0.229149L1.63654 0.281972L1.73339 0.3436L1.83023 0.396422L1.93587 0.449246L2.03272 0.502069L2.12956 0.554892L2.2264 0.616519L2.32324 0.669343L2.42009 0.713362L2.52573 0.766185L2.62258 0.819008L2.71942 0.871831L2.82506 0.915851L2.92191 0.968674L3.02755 1.0215L3.1244 1.06552L3.23004 1.10954L3.28287 1.13595L2.27042 3.33691L2.2176 3.31931Z" fill="white"/>
</svg>
