<svg width="156" height="57" viewBox="0 0 156 57" fill="none" xmlns="http://www.w3.org/2000/svg">
<path fill-rule="evenodd" clip-rule="evenodd" d="M61 8H20C8.95431 8 0 16.9543 0 28C0 39.0457 8.9543 48 20 48H61V47H20C9.50659 47 1 38.4934 1 28C1 17.5066 9.50659 9 20 9H61V8ZM95 47H136C146.493 47 155 38.4934 155 28C155 17.5066 146.493 9 136 9H95V8H136C147.046 8 156 16.9543 156 28C156 39.0457 147.046 48 136 48H95V47Z" fill="white"/>
<path d="M77.9506 0.416992L76.859 2.4859L75.8025 4.55481C76.5596 6.00745 77.2287 7.2664 77.977 8.69263L80.1516 4.55481L79.0335 2.4859L77.9506 0.416992Z" fill="white"/>
<path d="M88.9114 7.46877L88.8057 7.40714L88.7001 7.33671L88.5856 7.27508L88.48 7.20465L88.3655 7.14302L88.2599 7.0814L88.1542 7.01977L88.0398 6.95814L87.9253 6.89651L87.8197 6.84369L87.7052 6.78206L87.5908 6.72044L87.4851 6.65881L87.3707 6.60599L87.2562 6.54436L87.1418 6.49154L87.0273 6.43871L86.9129 6.38589L86.7984 6.32426L86.7368 6.29785L85.7244 8.50762L85.7684 8.52523L85.874 8.56925L85.9709 8.62207L86.0765 8.6749L86.1734 8.71892L86.2702 8.77174L86.3759 8.82456L86.4727 8.87738L86.5695 8.9214L86.6664 8.97423L86.772 9.03585L86.8689 9.08868L86.9657 9.1415L87.0626 9.19432L87.1594 9.24715L87.2562 9.30877L87.3531 9.3616L87.4499 9.41442L87.5468 9.47605L87.6436 9.53767L87.7316 9.5905L88.9994 7.52159L88.9114 7.46877Z" fill="white"/>
<path d="M84.1753 5.31201L84.0521 5.2768L83.9288 5.24158L83.8056 5.19756L83.6823 5.16235L83.559 5.13593L83.427 5.10072L83.3037 5.0655L83.1805 5.03029L83.0572 5.00388L82.9252 4.96866L82.8019 4.93345L82.6787 4.90703L82.5466 4.88062L82.4233 4.85421L82.2913 4.819L82.168 4.79258L82.036 4.77498L81.9127 4.74856L81.8423 4.73096L81.4021 7.1168L81.4549 7.12561L81.5694 7.15202L81.6838 7.16963L81.7895 7.19604L81.9039 7.22245L82.0184 7.24886L82.1328 7.27527L82.2385 7.30169L82.3529 7.31929L82.4674 7.35451L82.573 7.38092L82.6875 7.40733L82.8019 7.44255L82.9076 7.46896L83.0132 7.49537L83.1277 7.53059L83.2333 7.5658L83.3478 7.59221L83.4534 7.62743L83.5679 7.66264L83.6119 7.68025L84.3426 5.36484L84.2986 5.35603L84.1753 5.31201Z" fill="white"/>
<path d="M74.1213 4.72218L73.9892 4.74859L73.8572 4.77501L73.7339 4.79261L73.6019 4.81903L73.4786 4.85424L73.3466 4.88065L73.2233 4.90706L73.0913 4.93348L72.968 4.96869L72.8447 5.00391L72.7215 5.03032L72.5894 5.06553L72.4662 5.10075L72.3429 5.13596L72.2197 5.16238L72.0964 5.19759L71.9732 5.24161L71.8411 5.27683L71.7267 5.31204L71.6738 5.32965L72.4045 7.64507L72.4398 7.62746L72.5542 7.59224L72.6599 7.56583L72.7655 7.53062L72.88 7.4954L72.9944 7.46899L73.1001 7.44258L73.2145 7.40736L73.3202 7.38095L73.4346 7.35454L73.5402 7.31932L73.6547 7.30172L73.7691 7.2753L73.8836 7.24889L73.9892 7.22248L74.1037 7.19607L74.2181 7.16966L74.3326 7.15205L74.447 7.12564L74.5527 7.10803L74.6143 7.09923L74.1741 4.71338L74.1213 4.72218Z" fill="white"/>
<path d="M69.2176 6.27151L69.1031 6.32434L68.9887 6.38596L68.8742 6.43879L68.7598 6.49161L68.6453 6.54443L68.5309 6.60606L68.4164 6.65888L68.302 6.72051L68.1963 6.78214L68.0819 6.84377L67.9674 6.89659L67.8618 6.95822L67.7474 7.01984L67.6417 7.08147L67.5273 7.1431L67.4216 7.20472L67.3072 7.27515L67.2015 7.33678L67.0959 7.40721L66.999 7.46004L68.2756 9.52894L68.3548 9.47612L68.4517 9.41449L68.5397 9.36167L68.6365 9.30885L68.7334 9.24722L68.8302 9.1944L68.9359 9.14157L69.0327 9.08875L69.1296 9.03593L69.2264 8.9743L69.3232 8.92148L69.4201 8.87746L69.5257 8.82464L69.6226 8.77181L69.7194 8.71899L69.8251 8.67497L69.9219 8.62215L70.0276 8.56932L70.1244 8.5253L70.23 8.48128L70.2829 8.45487L69.2704 6.25391L69.2176 6.27151Z" fill="white"/>
<path d="M77.9506 56.1738L76.859 54.1049L75.8025 52.036C76.5596 50.5834 77.2287 49.3244 77.977 47.8982L80.1516 52.036L79.0335 54.1049L77.9506 56.1738Z" fill="white"/>
<path d="M88.9114 49.1221L88.8057 49.1837L88.7001 49.2541L88.5856 49.3157L88.48 49.3862L88.3655 49.4478L88.2599 49.5094L88.1542 49.5711L88.0398 49.6327L87.9253 49.6943L87.8197 49.7471L87.7052 49.8088L87.5908 49.8704L87.4851 49.932L87.3707 49.9848L87.2562 50.0465L87.1418 50.0993L87.0273 50.1521L86.9129 50.2049L86.7984 50.2666L86.7368 50.293L85.7244 48.0832L85.7684 48.0656L85.874 48.0216L85.9709 47.9687L86.0765 47.9159L86.1734 47.8719L86.2702 47.8191L86.3759 47.7663L86.4727 47.7134L86.5695 47.6694L86.6664 47.6166L86.772 47.555L86.8689 47.5021L86.9657 47.4493L87.0626 47.3965L87.1594 47.3437L87.2562 47.282L87.3531 47.2292L87.4499 47.1764L87.5468 47.1148L87.6436 47.0531L87.7316 47.0003L88.9994 49.0692L88.9114 49.1221Z" fill="white"/>
<path d="M84.1753 51.2788L84.0521 51.314L83.9288 51.3492L83.8056 51.3933L83.6823 51.4285L83.559 51.4549L83.427 51.4901L83.3037 51.5253L83.1805 51.5605L83.0572 51.5869L82.9252 51.6222L82.8019 51.6574L82.6787 51.6838L82.5466 51.7102L82.4233 51.7366L82.2913 51.7718L82.168 51.7982L82.036 51.8158L81.9127 51.8423L81.8423 51.8599L81.4021 49.474L81.4549 49.4652L81.5694 49.4388L81.6838 49.4212L81.7895 49.3948L81.9039 49.3684L82.0184 49.342L82.1328 49.3155L82.2385 49.2891L82.3529 49.2715L82.4674 49.2363L82.573 49.2099L82.6875 49.1835L82.8019 49.1483L82.9076 49.1219L83.0132 49.0954L83.1277 49.0602L83.2333 49.025L83.3478 48.9986L83.4534 48.9634L83.5679 48.9282L83.6119 48.9106L84.3426 51.226L84.2986 51.2348L84.1753 51.2788Z" fill="white"/>
<path d="M74.1213 51.8686L73.9892 51.8422L73.8572 51.8158L73.7339 51.7982L73.6019 51.7718L73.4786 51.7366L73.3466 51.7102L73.2233 51.6838L73.0913 51.6573L72.968 51.6221L72.8447 51.5869L72.7215 51.5605L72.5894 51.5253L72.4662 51.4901L72.3429 51.4549L72.2197 51.4284L72.0964 51.3932L71.9732 51.3492L71.8411 51.314L71.7267 51.2788L71.6738 51.2612L72.4045 48.9458L72.4398 48.9634L72.5542 48.9986L72.6599 49.025L72.7655 49.0602L72.88 49.0954L72.9944 49.1218L73.1001 49.1482L73.2145 49.1835L73.3202 49.2099L73.4346 49.2363L73.5402 49.2715L73.6547 49.2891L73.7691 49.3155L73.8836 49.3419L73.9892 49.3683L74.1037 49.3948L74.2181 49.4212L74.3326 49.4388L74.447 49.4652L74.5527 49.4828L74.6143 49.4916L74.1741 51.8774L74.1213 51.8686Z" fill="white"/>
<path d="M69.2176 50.3193L69.1031 50.2665L68.9887 50.2049L68.8742 50.152L68.7598 50.0992L68.6453 50.0464L68.5309 49.9848L68.4164 49.9319L68.302 49.8703L68.1963 49.8087L68.0819 49.7471L67.9674 49.6942L67.8618 49.6326L67.7474 49.571L67.6417 49.5094L67.5273 49.4477L67.4216 49.3861L67.3072 49.3157L67.2015 49.254L67.0959 49.1836L66.999 49.1308L68.2756 47.0619L68.3548 47.1147L68.4517 47.1763L68.5397 47.2291L68.6365 47.282L68.7334 47.3436L68.8302 47.3964L68.9359 47.4492L69.0327 47.5021L69.1296 47.5549L69.2264 47.6165L69.3232 47.6693L69.4201 47.7134L69.5257 47.7662L69.6226 47.819L69.7194 47.8718L69.8251 47.9159L69.9219 47.9687L70.0276 48.0215L70.1244 48.0655L70.23 48.1095L70.2829 48.1359L69.2704 50.3369L69.2176 50.3193Z" fill="white"/>
</svg>
