<?xml version="1.0" standalone="no"?>
<!DOCTYPE svg PUBLIC "-//W3C//DTD SVG 20010904//EN"
 "http://www.w3.org/TR/2001/REC-SVG-20010904/DTD/svg10.dtd">
<svg version="1.0" xmlns="http://www.w3.org/2000/svg"
 width="512.000000pt" height="512.000000pt" viewBox="0 0 512.000000 512.000000"
 preserveAspectRatio="xMidYMid meet">

<g transform="translate(0.000000,512.000000) scale(0.100000,-0.100000)"
fill="#000000" stroke="none">
<path d="M2565 4770 c-337 -53 -621 -160 -890 -334 -477 -310 -829 -805 -958
-1348 l-23 -93 -208 260 c-114 143 -212 261 -216 263 -5 2 -68 -44 -139 -101
l-131 -105 326 -409 c363 -454 385 -479 431 -499 75 -32 79 -31 643 251 l530
265 -77 154 -77 154 -378 -189 c-208 -104 -378 -187 -378 -185 0 27 47 216 75
301 259 791 1033 1328 1860 1291 495 -22 916 -206 1261 -550 366 -367 555
-821 555 -1336 0 -306 -60 -567 -193 -835 -98 -197 -200 -338 -362 -501 -338
-337 -733 -513 -1241 -552 l-90 -7 -3 -169 -2 -169 137 6 c853 36 1638 609
1953 1423 100 261 144 505 144 804 0 234 -15 358 -69 566 -181 693 -683 1255
-1358 1519 -124 48 -285 93 -437 120 -149 27 -529 30 -685 5z"/>
</g>
</svg>
